<?xml version="1.0" encoding="UTF-8"?>
<!--Generator: Apple Native CoreSVG 326-->
<!DOCTYPE svg
PUBLIC "-//W3C//DTD SVG 1.1//EN"
       "http://www.w3.org/Graphics/SVG/1.1/DTD/svg11.dtd">
<svg version="1.1" xmlns="http://www.w3.org/2000/svg" xmlns:xlink="http://www.w3.org/1999/xlink" viewBox="0 0 5.08783 5.08892">
 <g>
  <rect height="5.08892" opacity="0" width="5.08783" x="0" y="0"/>
  <path d="M2.54285 5.08571C3.94546 5.08571 5.08782 3.94335 5.08782 2.54285C5.08782 1.14236 3.94546-4.44089e-16 2.54285-4.44089e-16C1.14235-4.44089e-16 1.66533e-16 1.14236 1.66533e-16 2.54285C1.66533e-16 3.94335 1.14235 5.08571 2.54285 5.08571Z" fill="white" fill-opacity="0.1"/>
  <path d="M1.78229 3.72149C1.68992 3.72149 1.61776 3.65466 1.61776 3.56661C1.61776 3.52098 1.62841 3.49123 1.65706 3.44982L2.32324 2.51441L1.68992 1.62343C1.65284 1.57358 1.64007 1.54493 1.64007 1.49508C1.64007 1.4016 1.71958 1.32843 1.81406 1.32843C1.88943 1.32843 1.93507 1.35608 1.98492 1.42713L2.55431 2.26575L2.56717 2.26575L3.13355 1.42925C3.18129 1.35608 3.22481 1.32843 3.29487 1.32843C3.39046 1.32843 3.46363 1.39638 3.46363 1.48654C3.46363 1.52583 3.45086 1.56292 3.42011 1.60433L2.75814 2.52496L3.41468 3.43916C3.44332 3.48057 3.45608 3.51244 3.45608 3.55807C3.45608 3.65466 3.38292 3.72149 3.28211 3.72149C3.21095 3.72149 3.17164 3.69496 3.11546 3.61646L2.53974 2.78318L2.52898 2.78318L1.94783 3.61646C1.89165 3.69496 1.85557 3.72149 1.78229 3.72149Z" fill="#0a84ff"/>
 </g>
</svg>
